<svg xmlns="http://www.w3.org/2000/svg" width="153" height="18.16"><path data-name="パス 1" d="M16.7 8.28V9.8H9.08v8.26H7.52V9.8H0V8.28h7.52V3.76L2.1 4.7V3.18l12.12-2.12V2.6l-5.14.88v4.8zm12.94-6.44h5.16V3.3h-5.16v1.02h-1.48V3.3h-3.64v1.02h-1.48V3.3H17.9V1.84h5.14V.86h1.48v.98h3.64V.86h1.48zm1.44 2.36v1.1h3.66v1.44h-3.66v2.54h-5.34V6.74h-3.36v3.04h10.46v1.44H20.9V6.74h-2.92V5.3h2.92v-.96h1.48v.96h3.36V4.2h1.42v1.1h2.5V4.2zM29.66 8V6.74h-2.5V8zm-2.6 3.32v1.02h7.62v1.4h-7.12l7.12 2.88v1.5l-7.62-3.1v3.04h-1.42V15l-7.6 3.1v-1.48l7.06-2.88h-7.06v-1.4h7.6v-1.02zm18.02-8.06h7.52v1.48H36.1V3.26h7.48V.86h1.5zm.04 1.82v2.1h5.86v9.04h-1.54V8.64h-4.32v9.42h-1.56V8.64h-4.32v7.58h-1.52V7.18h5.84v-2.1zm21.64 5.88h-2.14v1.4h2.14v3.38h1.44v-3.38h2.14v-1.4H68.2v-2.3h2.6v-1.4h-1.68L69.98 4h.74V2.6H68.2V.86h-1.44V2.6h-2.5V4h.7l.86 3.26h-1.66v1.4h2.6zM66.36 4h2.22l-.86 3.26h-.48zm-6.94 10.1l.48-2.02v3.6h4.28V8.86h-3.9V7.28h3.52V1.64h-4.94v8.88l-.88 3.58zm.86-11.08h2.12v2.86h-2.12zm.98 7.28h1.5v3.94h-1.5zm-1.32 6l-2.28-1.8V6.86H53.9v1.48h2.28v6.2L53.9 16.3v1.86l3.04-2.36 2.48 1.98H70.8V16.3zM57.9 3.32L54.3 2v1.58l3.6 1.3zm16.28 1.22v-1.2h-2.3V2.08h2.3V.86h1.36v1.22h1.44V.86h1.36v1.22h2.3v1.26h-2.3v1.2h-1.36v-1.2h-1.44v1.2zm14.62.74h-2.94v2.44h2.7v1.42h-2.7v2.48h2.7v1.42h-2.7v3.36h2.94v1.46h-7.84V8.42h-1.18v.94h-2.82v1.16h2.98v1.36h-2.98v1.08h3.68v1.36h-3.68v.42l2.98 1.5v1.56l-3.6-1.8-4.32 2.06V16.5l3.54-1.7v-.48H71.9v-1.36h3.66v-1.08h-2.68v-1.36h2.68V9.36h-2.8v-4.4h7.02v2.7L82.6.96h1.62l-1.18 2.86h1.46L85.7.96h1.64l-1.2 2.86h2.66zM74.12 8.16h1.44V6.14h-1.44zm4.28 0V6.14h-1.44v2.02zm5.96 8.24v-3.36h-1.9v3.36zm0-4.78V9.14h-1.9v2.48zm0-3.9V5.28h-1.9v2.44zM106.8 6.7v1.48h-2.24v9.88h-1.46V8.18h-2.8v7.56l-1.16 2.12h-1.68l1.32-2.42V3.38l7.56-2.24v1.54l-6.04 1.78V6.7zm-8.4-5.1v1.5h-8.28V1.6zm-.66 2.78v7h-5l-1.3 6.68h-1.56l1.38-7V4.38zm-1.48 5.54V5.84h-3.52v4.08zM122.62 3v7.14l-7.22 5.04 1.54 2.2h-1.86l-5.32-7.58h1.88l2.9 4.16 6.54-4.58V4.54h-13.02V3zm2.12 2.9l.98 5.5h-1.46l-.98-5.5zm4.82 5.22h-1.46l-1-5.64h1.46zm4.56-5.9h1.46l-1.4 8.02-.02.02-2.8 4h-6.46v-1.42h5.7l2.2-3.14zM150.7 0a2.288 2.288 0 012.3 2.3 2.3 2.3 0 01-2.3 2.32 2.273 2.273 0 01-1.04-.24v5.4l-5.22 7.44h-7.42v-1.46h6.62l4.5-6.42V4.5h-12.72V3.02h13.08a2.092 2.092 0 01-.12-.72A2.3 2.3 0 01150.7 0zm0 3.72a1.408 1.408 0 001.4-1.42 1.391 1.391 0 00-1.4-1.4 1.408 1.408 0 00-1.42 1.4 1.425 1.425 0 001.42 1.42z" fill="#fff"/></svg>
