<svg xmlns="http://www.w3.org/2000/svg" width="96.54" height="11.388"><path data-name="パス 1" d="M4.572 6.288a1.326 1.326 0 01-1.488 1.26c-1.128 0-1.512-.6-1.512-2.328V3.612c0-1.716.384-2.328 1.488-2.328a1.271 1.271 0 011.416 1.26l1.44-.108C5.832.804 4.884.012 3.036.012a2.848 2.848 0 00-2.364.9A3.6 3.6 0 000 3.504v1.824a3.9 3.9 0 00.548 2.436A2.777 2.777 0 003.036 8.82c1.92 0 2.916-.78 3-2.364zm2.952 2.4h1.488V5.424c0-1.248.324-1.752 1.1-1.752.72 0 1.032.468 1.032 1.6v3.416h1.488V5.16a4.575 4.575 0 00-.18-1.572A1.927 1.927 0 0010.436 2.4a2.072 2.072 0 00-1.428.444V.12H7.524zm6.852-7.116h1.488V.048h-1.488zm0 7.116h1.488V2.532h-1.488zm3.288 0h1.152l.084-.432a2.067 2.067 0 001.648.564c1.644 0 2.328-.816 2.328-2.76v-.9c0-1.932-.7-2.76-2.3-2.76a2.289 2.289 0 00-1.428.42V.12h-1.484zm3.732-2.736c0 1.152-.348 1.668-1.116 1.668s-1.132-.444-1.132-1.404V5.004c0-.96.36-1.416 1.128-1.416s1.116.516 1.116 1.68zm6.216-.984h-1.248c-1.74 0-2.3.468-2.3 1.944 0 1.38.576 1.908 2.1 1.908a2.222 2.222 0 001.68-.492l.1.36h1.164V4.956a3.388 3.388 0 00-.228-1.524A2.2 2.2 0 0026.72 2.4a2.839 2.839 0 00-2.432 1.068l1.032.732a1.529 1.529 0 011.248-.612c.72 0 1.044.336 1.044 1.1zm0 1.008v.648c0 .42-.024.576-.132.72a1.051 1.051 0 01-.936.336c-.8 0-1.068-.2-1.068-.828s.3-.876 1.068-.876zm5 1.416A3.312 3.312 0 0035.76 8.82c2.016 0 3.06-.852 3.06-2.52a2.094 2.094 0 00-.828-1.9 4.89 4.89 0 00-1.788-.648c-1.308-.324-1.716-.66-1.716-1.392 0-.7.468-1.1 1.272-1.1a1.842 1.842 0 011.608.78l1.164-.752A2.938 2.938 0 0035.796.004c-1.8 0-2.82.888-2.82 2.46 0 1.392.684 2.088 2.448 2.532 1.212.312 1.212.312 1.476.48a1.061 1.061 0 01.408.876c0 .768-.528 1.188-1.536 1.188a2.046 2.046 0 01-1.956-.912zm7.636 1.296h1.488V5.424c0-1.248.324-1.752 1.1-1.752.72 0 1.032.468 1.032 1.6v3.416h1.488V5.16a4.575 4.575 0 00-.18-1.572A1.927 1.927 0 0043.16 2.4a2.072 2.072 0 00-1.428.444V.12h-1.484zm8.148-2.712h3.78v-.54c0-2.148-.768-3.036-2.64-3.036s-2.64.888-2.64 3.036v.432c0 2.064.8 2.952 2.664 2.952a2.584 2.584 0 002.532-1.164L51 7.02a1.38 1.38 0 01-1.272.636c-.876 0-1.332-.516-1.332-1.488zm-.012-1.032v-.132a1.131 1.131 0 011.188-1.3c.78 0 1.2.456 1.2 1.3v.132zM53.604.12v6c0 2.088.468 2.568 2.484 2.568h.288V7.476h-.228c-.816.012-1.068-.276-1.056-1.212V.12zm3.864 3.588V6.12c0 2.124.432 2.568 2.5 2.568h.216V7.476h-.168c-.816.012-1.056-.276-1.056-1.212V3.708h1.224V2.532h-1.228v-1.8h-1.408l-.084 1.8h-.7v1.176zm5.316 2.268h3.78v-.54c0-2.148-.768-3.036-2.64-3.036s-2.64.888-2.64 3.036v.432c0 2.064.8 2.952 2.664 2.952a2.584 2.584 0 002.532-1.164l-1.092-.636a1.38 1.38 0 01-1.272.636c-.876 0-1.332-.516-1.332-1.488zm-.012-1.032v-.132a1.131 1.131 0 011.188-1.3c.78 0 1.2.456 1.2 1.3v.132zm5.276 3.744h1.488V5.712c0-1.44.276-2.028.96-2.028a1.252 1.252 0 01.816.324l.652-1.22a2.571 2.571 0 00-1.32-.384 1.538 1.538 0 00-1.272.576l-.18-.444h-1.144zm7.26 0h1.512V3.072l1.828 3.78h1.008l1.824-3.78v5.616h1.512V.12h-1.476l-2.368 4.932L76.788.12h-1.476zm12.78-3.72h-1.24c-1.74 0-2.3.468-2.3 1.944 0 1.38.576 1.908 2.1 1.908a2.222 2.222 0 001.68-.492l.1.36h1.164V4.956a3.388 3.388 0 00-.244-1.524 2.2 2.2 0 00-2.16-1.032 2.839 2.839 0 00-2.42 1.068L85.8 4.2a1.529 1.529 0 011.248-.612c.72 0 1.044.336 1.044 1.1zm0 1.008v.648c0 .42-.024.576-.132.72a1.051 1.051 0 01-.936.336c-.8 0-1.068-.2-1.068-.828s.3-.876 1.068-.876zm3.244 5.412h1.488V8.412a2.382 2.382 0 001.416.408c1.62 0 2.3-.828 2.3-2.76v-.9c0-1.944-.684-2.76-2.328-2.76a2.245 2.245 0 00-1.584.528l-.144-.4h-1.148zm3.732-5.436c0 1.152-.348 1.668-1.116 1.668s-1.128-.444-1.128-1.4V5.004c0-.96.36-1.416 1.128-1.416s1.116.516 1.116 1.68z" fill="#fff"/></svg>
