<svg xmlns="http://www.w3.org/2000/svg" width="409.9" height="94.7"><path data-name="パス 1" d="M0 71.4h6.1l10.7-60.7 27.5 60.7h5.9L62.8 0h-6.1L46 60.7 18.5 0h-5.9zm72.6-21.9a38.786 38.786 0 00-.7 7.2c0 10.4 6.1 15.6 18.1 15.6 12.9 0 20-6.6 22.5-21l1.3-7.7a44.668 44.668 0 00.8-7.4c0-10.2-6.2-15.4-18-15.4-13 0-20.1 6.6-22.6 21zm34.1.7c-2 11.6-7.3 17-16.6 17-8.1 0-12.2-3.8-12.2-11.5a24.058 24.058 0 01.6-5.5l1.2-7.2c2.1-11.8 7.4-17.2 16.8-17.2 7.9 0 12.1 3.9 12.1 11.3a38.883 38.883 0 01-.6 5.9zm41.1 21.2h6.2L166.6 0h-6.2zm26.7 0h6l4.4-25.2c2.5-14.3 7.1-20.1 15.8-20.1 6.3 0 9.5 3.5 9.5 10.3a37.107 37.107 0 01-.8 6.7l-5 28.3h6l4.5-25.2c2.5-14.3 7.1-20.1 15.8-20.1 6.2 0 9.5 3.5 9.5 10 0 2.2 0 2.5-.9 7.2l-4.9 28.1h6l4.9-28.2a44.03 44.03 0 001.1-9.4c0-8.3-5.3-13-14.7-13-7.3 0-12.6 2.9-15.8 8.7-1.7-5.7-6.5-8.7-13.9-8.7-6.5 0-11.2 2.3-14.6 7.1l.6-6.2h-4.7zm117-28.6h-13.8c-8.4 0-13.7 1.6-16.9 5.1-2.7 3-4.3 8.2-4.3 13.8 0 7.4 4.9 10.6 16.4 10.6 7.4 0 11-.9 14.5-3.8l.1 2.9h4.9l5.5-31.3a40.394 40.394 0 00.9-7.2c0-7.8-5.6-12.1-15.8-12.1-7.3 0-13.1 2.3-17.7 6.9l3.6 3.2a19.648 19.648 0 0113.6-5.1c6.8 0 10.3 2.8 10.3 8.1a19.042 19.042 0 01-.6 4.6zm-.8 4.7l-1.6 9c-.8 4-1.4 5.7-2.8 7.2-2.4 2.6-6.1 3.7-12.2 3.7-8.5 0-11.6-1.8-11.6-6.6 0-3.9 1.2-7.6 3.2-9.6 2.5-2.6 6.4-3.7 12.5-3.7zm51.4 25.2c-1.9 11.1-8.2 17-18 17-5.4 0-8.7-1.5-11.1-4.9l-5 2.9c2.9 4.7 8.2 7 16.2 7 13.5 0 21.3-7.4 24-22.7l8.9-50.3h-4.8l-1.7 6.8c-2.7-5.4-7.3-7.7-15.2-7.7-12.1 0-18.5 6.4-21.1 21l-1.3 7.6a45.791 45.791 0 00-.8 7.7c0 10 5.5 15.2 16.2 15.2 6.9 0 11.3-2 15-6.7zm-22-29.7c2-11.7 7.2-17.2 16.1-17.2 7.7 0 11.7 4 11.7 11.6a38.644 38.644 0 01-.5 5.5l-1.3 7.3c-2 11.3-7.4 17-16.4 17-7.6 0-11.4-3.8-11.4-11.3a37.852 37.852 0 01.5-5.8zm55.2 4.4h33.4a48.155 48.155 0 001.2-10.4c0-10.7-5.9-16.2-17.3-16.2-12.9 0-20 7.1-22.6 22.6l-.8 4.6a46.886 46.886 0 00-.8 7.8c0 10.8 6.4 16.5 18.8 16.5 7.4 0 12.4-2 16.5-6.6l-3.9-3.3c-3.4 3.5-7 4.9-12.3 4.9-8.6 0-13.1-4.3-13.1-12.5a25.221 25.221 0 01.4-4.8zm.8-4.7l.1-.6c1.7-10.5 7.7-16.5 16.6-16.5q11.4 0 11.4 11.7a31.935 31.935 0 01-.4 5.4z" fill="#999"/></svg>
